<?xml version="1.0" encoding="UTF-8"?>
<svg version="1.1" xmlns="http://www.w3.org/2000/svg" width="512" height="512">
<path d="M0 0 C1.45108658 0.00273422 1.45108658 0.00273422 2.93148804 0.00552368 C17.26440977 0.05095174 31.21023917 0.55983928 45.3125 3.3125 C46.65803955 3.55395752 46.65803955 3.55395752 48.03076172 3.80029297 C107.84088904 14.62287989 165.35495829 48.68064457 202.3125 97.3125 C202.72918945 97.85277832 203.14587891 98.39305664 203.57519531 98.94970703 C211.2584873 108.9447116 218.00092968 119.40459036 224.3125 130.3125 C224.70679199 130.98974121 225.10108398 131.66698242 225.50732422 132.36474609 C238.68961173 155.2833756 247.29510918 180.85822563 252.625 206.6875 C252.77243652 207.39817627 252.91987305 208.10885254 253.07177734 208.84106445 C256.05713787 224.48358366 256.6873098 240.11919606 256.625 256 C256.62226578 257.45108658 256.62226578 257.45108658 256.61947632 258.93148804 C256.57404826 273.26440977 256.06516072 287.21023917 253.3125 301.3125 C253.15152832 302.20952637 252.99055664 303.10655273 252.82470703 304.03076172 C242.00212011 363.84088904 207.94435543 421.35495829 159.3125 458.3125 C158.77222168 458.72918945 158.23194336 459.14587891 157.67529297 459.57519531 C147.6802884 467.2584873 137.22040964 474.00092968 126.3125 480.3125 C125.63525879 480.70679199 124.95801758 481.10108398 124.26025391 481.50732422 C101.3416244 494.68961173 75.76677437 503.29510918 49.9375 508.625 C49.22682373 508.77243652 48.51614746 508.91987305 47.78393555 509.07177734 C32.14141634 512.05713787 16.50580394 512.6873098 0.625 512.625 C-0.34239105 512.62317719 -1.3097821 512.62135437 -2.30648804 512.61947632 C-16.63940977 512.57404826 -30.58523917 512.06516072 -44.6875 509.3125 C-45.58452637 509.15152832 -46.48155273 508.99055664 -47.40576172 508.82470703 C-107.21588904 498.00212011 -164.72995829 463.94435543 -201.6875 415.3125 C-202.10418945 414.77222168 -202.52087891 414.23194336 -202.95019531 413.67529297 C-210.6334873 403.6802884 -217.37592968 393.22040964 -223.6875 382.3125 C-224.08179199 381.63525879 -224.47608398 380.95801758 -224.88232422 380.26025391 C-238.06461173 357.3416244 -246.67010918 331.76677437 -252 305.9375 C-252.14743652 305.22682373 -252.29487305 304.51614746 -252.44677734 303.78393555 C-255.43213787 288.14141634 -256.0623098 272.50580394 -256 256.625 C-255.99817719 255.65760895 -255.99635437 254.6902179 -255.99447632 253.69351196 C-255.94904826 239.36059023 -255.44016072 225.41476083 -252.6875 211.3125 C-252.44604248 209.96696045 -252.44604248 209.96696045 -252.19970703 208.59423828 C-241.37712011 148.78411096 -207.31935543 91.27004171 -158.6875 54.3125 C-158.14722168 53.89581055 -157.60694336 53.47912109 -157.05029297 53.04980469 C-147.0552884 45.3665127 -136.59540964 38.62407032 -125.6875 32.3125 C-125.01025879 31.91820801 -124.33301758 31.52391602 -123.63525391 31.11767578 C-100.7166244 17.93538827 -75.14177437 9.32989082 -49.3125 4 C-48.60182373 3.85256348 -47.89114746 3.70512695 -47.15893555 3.55322266 C-31.51641634 0.56786213 -15.88080394 -0.0623098 0 0 Z M-142.6875 113.3125 C-142.6875 207.6925 -142.6875 302.0725 -142.6875 399.3125 C-123.8775 399.3125 -105.0675 399.3125 -85.6875 399.3125 C-85.3575 334.3025 -85.0275 269.2925 -84.6875 202.3125 C-58.6875 293.3125 -58.6875 293.3125 -49.62109375 325.1328125 C-46.79249436 335.05814422 -46.79249436 335.05814422 -43.96362305 344.98339844 C-42.69169884 349.44686364 -41.42141666 353.9107927 -40.15209961 358.375 C-38.54938411 364.011451 -36.94353815 369.64700118 -35.33543587 375.28191757 C-34.74058211 377.36848831 -34.1468814 379.45538816 -33.55441093 381.54263687 C-32.75339505 384.36409132 -31.94838849 387.18437616 -31.14233398 390.00439453 C-30.90625427 390.83966171 -30.67017456 391.67492889 -30.42694092 392.5355072 C-29.61743126 396.21841789 -29.61743126 396.21841789 -27.6875 399.3125 C-25.9382128 399.40615006 -24.18513746 399.42994438 -22.43334961 399.42602539 C-20.75171974 399.42591209 -20.75171974 399.42591209 -19.03611755 399.42579651 C-17.8163472 399.42063522 -16.59657684 399.41547394 -15.33984375 399.41015625 C-14.09828018 399.4087413 -12.85671661 399.40732635 -11.57752991 399.40586853 C-8.27144509 399.40120591 -4.96542854 399.39221497 -1.65936279 399.38116455 C1.7121115 399.37094827 5.08359283 399.36637045 8.45507812 399.36132812 C15.07423775 399.35027395 21.69336493 399.33351736 28.3125 399.3125 C31.03553518 392.43841431 33.08658489 385.44012118 35.1027832 378.33032227 C35.47431003 377.02927167 35.8461293 375.72830455 36.21821594 374.42741394 C37.22603712 370.90075542 38.22978117 367.37294817 39.23280358 363.8449223 C40.29953633 360.09554779 41.37010034 356.34726741 42.44023132 352.59886169 C44.48022581 345.45110569 46.51686489 338.30239819 48.55227488 331.15333551 C50.8125996 323.2148326 53.07638407 315.277318 55.34060919 307.33992684 C58.12994309 297.56167366 60.91882438 287.78329231 63.70466614 278.00404358 C70.89353721 252.76957449 78.10422324 227.54146866 85.3125 202.3125 C85.6425 267.3225 85.9725 332.3325 86.3125 399.3125 C105.1225 399.3125 123.9325 399.3125 143.3125 399.3125 C143.3125 304.9325 143.3125 210.5525 143.3125 113.3125 C115.2625 113.3125 87.2125 113.3125 58.3125 113.3125 C55.85263841 118.97905557 55.85263841 118.97905557 53.88493347 124.71846008 C53.6433957 125.52130212 53.40185793 126.32414415 53.15300083 127.15131474 C52.89908038 128.01057277 52.64515993 128.8698308 52.38354492 129.75512695 C52.10592032 130.68229491 51.82829573 131.60946287 51.54225826 132.56472683 C50.62184971 135.64223907 49.70739572 138.72148689 48.79296875 141.80078125 C48.13950336 143.99027884 47.4856767 146.17966863 46.83151245 148.36895752 C45.07865749 154.23901677 43.33094909 160.11059687 41.58418655 165.98247147 C39.77790597 172.05101062 37.96665398 178.1180656 36.15600586 184.18530273 C29.80335104 205.47849583 23.46849928 226.77698299 17.14320183 248.07831764 C16.3502524 250.74866788 15.55716143 253.41897605 14.76405334 256.08927917 C12.59823101 263.38217708 10.43337319 270.67535063 8.27484512 277.9704113 C7.41571914 280.87302804 6.55521798 283.77523591 5.6944313 286.67736053 C5.30177463 288.00253069 4.90978581 289.32789894 4.51852036 290.65348053 C3.9932569 292.43297127 3.46557461 294.21174751 2.93774414 295.99047852 C2.64565567 296.97790543 2.3535672 297.96533234 2.05262756 298.98268127 C1.3125 301.3125 1.3125 301.3125 0.3125 303.3125 C-3.02614255 292.37661526 -6.35812103 281.43870798 -9.6875 270.5 C-9.94545601 269.65270199 -10.20341202 268.80540398 -10.46918488 267.93243027 C-17.8249114 243.76908677 -25.11421253 219.58655544 -32.3359375 195.3828125 C-32.88042919 193.55853572 -32.88042919 193.55853572 -33.43592072 191.69740486 C-37.06126793 179.55071722 -40.68338585 167.40308358 -44.29520226 155.25236511 C-45.65217829 150.68970659 -47.01203244 146.12790917 -48.37251663 141.56629562 C-49.00991224 139.42651854 -49.64595816 137.2863389 -50.28059006 135.14574051 C-51.15166252 132.20789058 -52.0272082 129.27140947 -52.90380859 126.33520508 C-53.15818695 125.47300448 -53.41256531 124.61080389 -53.6746521 123.72247601 C-53.91192017 122.93099572 -54.14918823 122.13951544 -54.39364624 121.3240509 C-54.6980919 120.29990947 -54.6980919 120.29990947 -55.00868797 119.25507832 C-55.78000005 116.91561993 -55.78000005 116.91561993 -57.6875 113.3125 C-85.7375 113.3125 -113.7875 113.3125 -142.6875 113.3125 Z " fill="#000000" transform="translate(255.6875,-0.3125)"/>
</svg>
