<?xml version="1.0" encoding="UTF-8"?>
<svg version="1.1" xmlns="http://www.w3.org/2000/svg" width="512" height="512">
<path d="M0 0 C5.89468119 3.5897097 9.4082094 8.85990914 11.4375 15.375 C11.66641677 19.05757418 11.61735738 22.69125447 11.4375 26.375 C12.51004028 26.77199097 12.51004028 26.77199097 13.60424805 27.17700195 C16.52687142 28.41278936 19.07358493 29.8715727 21.76953125 31.54296875 C22.80287598 32.18113525 23.8362207 32.81930176 24.90087891 33.47680664 C26.55869385 34.50922485 26.55869385 34.50922485 28.25 35.5625 C29.41567329 36.28471375 30.58152907 37.00663303 31.74755859 37.72827148 C35.31456059 39.93793902 38.87652075 42.15564354 42.4375 44.375 C43.48631348 45.02823242 44.53512695 45.68146484 45.61572266 46.35449219 C53.55071339 51.2999499 61.47392022 56.26416237 69.39648438 61.22949219 C80.71659794 68.32228582 92.05438161 75.38367349 103.4375 82.375 C116.80444603 90.58476123 130.10456012 98.89900897 143.39648438 107.22949219 C146.36797153 109.09132379 149.34004252 110.95221795 152.3125 112.8125 C153.78565674 113.73470337 153.78565674 113.73470337 155.28857422 114.67553711 C160.52013683 117.94515732 165.76321578 121.19463465 171.0234375 124.41796875 C172.12413574 125.09279297 173.22483398 125.76761719 174.35888672 126.46289062 C176.56422152 127.81255423 178.77155801 129.15895298 180.98095703 130.50195312 C186.09240972 133.62540453 191.12336062 136.80223208 196.03125 140.23828125 C207.68100918 148.42353592 207.68100918 148.42353592 221.50390625 150.296875 C226.10698022 150.41946019 229.12496119 152.28910858 232.4375 155.375 C235.49231508 159.11961204 236.27732132 162.56963967 236.4375 167.375 C235.60579742 172.07452331 234.24270988 176.07713775 230.6875 179.375 C227.4375 181.375 227.4375 181.375 220.4375 182.375 C220.4375 280.055 220.4375 377.735 220.4375 478.375 C222.4175 478.705 224.3975 479.035 226.4375 479.375 C230.9593619 481.42060419 233.09576482 484.02606323 235.4375 488.375 C237.09531761 494.23262224 236.22736678 499.0543255 233.4375 504.375 C231.12669949 506.96850482 228.55641461 508.8155427 225.4375 510.375 C222.88459558 510.47522482 220.3588228 510.51424851 217.80553055 510.50922108 C216.60433169 510.51274942 216.60433169 510.51274942 215.3788662 510.51634905 C212.66672835 510.5230627 209.95463815 510.52258012 207.24249268 510.52217102 C205.2898866 510.52546817 203.33728121 510.52919342 201.38467669 510.5333125 C195.99643207 510.54335749 190.60819858 510.5470533 185.21994591 510.54970181 C179.41748961 510.55359745 173.6150422 510.56317626 167.81259155 510.57191467 C153.78880434 510.5916997 139.76501637 510.60174772 125.74121869 510.61064246 C119.14318044 510.61502189 112.54514301 510.62038958 105.94710541 510.62563133 C84.02418304 510.64264539 62.10126124 510.6571657 40.17833328 510.66438007 C38.76008266 510.66485483 37.34183203 510.66533072 35.92358141 510.66580774 C35.22024402 510.66604411 34.51690664 510.66628049 33.792256 510.66652403 C30.22869149 510.66772525 26.665127 510.66894069 23.1015625 510.67016602 C22.39435739 510.67040617 21.68715228 510.67064632 20.95851671 510.67089374 C-1.97606094 510.67878848 -24.9105869 510.70222331 -47.84514197 510.73472196 C-72.0826595 510.76900434 -96.32014677 510.78872973 -120.55768895 510.79202431 C-133.77395306 510.79419277 -146.9901412 510.8029904 -160.20638275 510.82848549 C-171.4592802 510.85014253 -182.71208324 510.85826757 -193.96499917 510.84851871 C-199.70948605 510.84395954 -205.45377796 510.84595389 -211.19823837 510.86528015 C-216.45378544 510.88280934 -221.70899381 510.88199783 -226.96454397 510.86638286 C-228.86902387 510.86399114 -230.77352661 510.8684106 -232.67797145 510.88021151 C-235.26145177 510.89523248 -237.8437167 510.88572648 -240.42716599 510.86998463 C-241.17129195 510.88020683 -241.91541791 510.89042904 -242.68209314 510.90096101 C-247.77369492 510.83297555 -250.63913891 509.57306254 -254.5625 506.375 C-257.70198771 502.47185311 -259.36125178 499.40620562 -259.5625 494.375 C-259.07511064 489.96238563 -258.10980686 487.05913358 -255.3125 483.5625 C-251.58137436 480.59455915 -248.4157403 478.375 -243.5625 478.375 C-243.5625 380.695 -243.5625 283.015 -243.5625 182.375 C-245.8725 182.045 -248.1825 181.715 -250.5625 181.375 C-255.50120949 178.33579416 -257.64921464 175.36743322 -259.22265625 169.78125 C-259.97923969 164.42429139 -258.58440793 160.05384874 -255.8125 155.5 C-250.14478779 150.1471607 -244.7362253 150.04898737 -237.29296875 150.07421875 C-232.96030192 149.26212727 -230.64983085 147.70222082 -227.11401367 145.17407227 C-224.3035991 143.19244897 -221.41625951 141.41040328 -218.47265625 139.6328125 C-216.82172974 138.63471558 -216.82172974 138.63471558 -215.13745117 137.61645508 C-214.27970596 137.09965683 -214.27970596 137.09965683 -213.40463257 136.57241821 C-210.30605251 134.70519363 -207.21173325 132.83093176 -204.1171875 130.95703125 C-203.48534042 130.57457748 -202.85349335 130.19212372 -202.20249939 129.79808044 C-195.86563431 125.9592236 -189.55587833 122.07705378 -183.25 118.1875 C-174.26331284 112.64610388 -165.25730898 107.13808179 -156.23388672 101.65673828 C-149.09789949 97.31836155 -141.98360619 92.94557089 -134.875 88.5625 C-125.20740044 82.60254615 -115.51146316 76.69146167 -105.79840088 70.80609131 C-96.18666355 64.98100774 -86.60602978 59.10697114 -77.03955078 53.20776367 C-68.7520527 48.09958173 -60.44277433 43.02806288 -52.11987305 37.9777832 C-50.80369995 37.17860474 -50.80369995 37.17860474 -49.4609375 36.36328125 C-48.63303711 35.86135254 -47.80513672 35.35942383 -46.95214844 34.84228516 C-43.98695508 33.02160554 -41.05954757 31.14445421 -38.14306641 29.24682617 C-36.5625 28.375 -36.5625 28.375 -34.5625 28.375 C-34.64951172 27.14136719 -34.64951172 27.14136719 -34.73828125 25.8828125 C-35.06028255 17.91558032 -34.45802861 11.86333217 -29.5625 5.375 C-21.69372075 -2.12636544 -10.2419443 -4.72856049 0 0 Z M-27.9296875 41.70703125 C-29.11758321 42.50686511 -30.28574867 43.33644226 -31.4375 44.1875 C-32.84447564 45.14339586 -34.25347863 46.09631177 -35.6640625 47.046875 C-36.43911133 47.57990234 -37.21416016 48.11292969 -38.01269531 48.66210938 C-42.84753037 51.91002232 -47.84210198 54.90300772 -52.8125 57.9375 C-54.49532344 58.97211115 -56.17814385 60.00672732 -57.86068726 61.04179382 C-65.99650834 66.04360994 -74.16185687 70.99656927 -82.32971191 75.9458313 C-91.8332361 81.70510074 -101.30458907 87.51483292 -110.76245117 93.34887695 C-118.77864746 98.28898487 -126.82150365 103.18358208 -134.875 108.0625 C-143.78598132 113.46096447 -152.67183125 118.89680393 -161.5168457 124.40283203 C-166.62546863 127.57643815 -171.75683021 130.70962672 -176.90625 133.81640625 C-177.8567926 134.39054764 -177.8567926 134.39054764 -178.82653809 134.97628784 C-181.96045387 136.86891137 -185.09649983 138.7578266 -188.23632812 140.640625 C-189.38680819 141.33448713 -190.53720282 142.02849096 -191.6875 142.72265625 C-193.20730469 143.63543335 -193.20730469 143.63543335 -194.7578125 144.56665039 C-198.02510859 146.6058491 -198.02510859 146.6058491 -202.5625 150.375 C-76.5025 150.375 49.5575 150.375 179.4375 150.375 C176.10883972 147.71207178 173.11474651 145.44302823 169.54296875 143.23046875 C168.60018066 142.64402588 167.65739258 142.05758301 166.68603516 141.45336914 C165.67589355 140.82938232 164.66575195 140.20539551 163.625 139.5625 C161.44914661 138.21105365 159.27336738 136.85948788 157.09765625 135.5078125 C155.98793457 134.81977539 154.87821289 134.13173828 153.73486328 133.42285156 C149.64833243 130.88488171 145.57204024 128.33079815 141.49609375 125.77587891 C130.96411382 119.17586152 120.38985266 112.64714946 109.79736328 106.14477539 C102.72585856 101.79842594 95.69377467 97.39552852 88.68701172 92.94580078 C82.07793705 88.75813619 75.41790241 84.65570172 68.75 80.5625 C57.29554314 73.53039697 45.88691322 66.42796771 34.49755859 59.29101562 C31.23570395 57.24864805 27.97169751 55.20974346 24.70703125 53.171875 C23.60568848 52.48424072 22.5043457 51.79660645 21.36962891 51.08813477 C19.25097386 49.76544997 17.13216558 48.44301058 15.01318359 47.12084961 C14.0639502 46.52796143 13.1147168 45.93507324 12.13671875 45.32421875 C10.88121216 44.54050903 10.88121216 44.54050903 9.6003418 43.7409668 C7.86336379 42.64395902 6.14685588 41.51457059 4.4375 40.375 C1.64769779 40.67660024 -0.64059093 41.40587316 -3.25 42.4375 C-9.31307545 44.15346475 -14.7115006 44.25872146 -20.453125 41.6171875 C-23.87827686 40.28117797 -24.27680816 40.26198269 -27.9296875 41.70703125 Z " fill="#DEEAF9" transform="translate(267.5625,1.625)"/>
<path d="M0 0 C5.89468119 3.5897097 9.4082094 8.85990914 11.4375 15.375 C11.66641677 19.05757418 11.61735738 22.69125447 11.4375 26.375 C12.51004028 26.77199097 12.51004028 26.77199097 13.60424805 27.17700195 C16.52687142 28.41278936 19.07358493 29.8715727 21.76953125 31.54296875 C22.80287598 32.18113525 23.8362207 32.81930176 24.90087891 33.47680664 C26.55869385 34.50922485 26.55869385 34.50922485 28.25 35.5625 C29.41567329 36.28471375 30.58152907 37.00663303 31.74755859 37.72827148 C35.31456059 39.93793902 38.87652075 42.15564354 42.4375 44.375 C43.48631348 45.02823242 44.53512695 45.68146484 45.61572266 46.35449219 C53.55071339 51.2999499 61.47392022 56.26416237 69.39648438 61.22949219 C80.71659794 68.32228582 92.05438161 75.38367349 103.4375 82.375 C116.80444603 90.58476123 130.10456012 98.89900897 143.39648438 107.22949219 C146.36797153 109.09132379 149.34004252 110.95221795 152.3125 112.8125 C153.78565674 113.73470337 153.78565674 113.73470337 155.28857422 114.67553711 C160.52013683 117.94515732 165.76321578 121.19463465 171.0234375 124.41796875 C172.12413574 125.09279297 173.22483398 125.76761719 174.35888672 126.46289062 C176.56422152 127.81255423 178.77155801 129.15895298 180.98095703 130.50195312 C186.09240972 133.62540453 191.12336062 136.80223208 196.03125 140.23828125 C207.68100918 148.42353592 207.68100918 148.42353592 221.50390625 150.296875 C226.10698022 150.41946019 229.12496119 152.28910858 232.4375 155.375 C235.49231508 159.11961204 236.27732132 162.56963967 236.4375 167.375 C235.57236921 172.26340891 234.22222227 176.11240465 230.375 179.375 C225.94380636 182.3919829 223.04021335 182.51952817 217.80553055 182.50922108 C216.60433169 182.51274942 216.60433169 182.51274942 215.3788662 182.51634905 C212.66672835 182.5230627 209.95463815 182.52258012 207.24249268 182.52217102 C205.2898866 182.52546817 203.33728121 182.52919342 201.38467669 182.5333125 C195.99643207 182.54335749 190.60819858 182.5470533 185.21994591 182.54970181 C179.41748961 182.55359745 173.6150422 182.56317626 167.81259155 182.57191467 C153.78880434 182.5916997 139.76501637 182.60174772 125.74121869 182.61064246 C119.14318044 182.61502189 112.54514301 182.62038958 105.94710541 182.62563133 C84.02418304 182.64264539 62.10126124 182.6571657 40.17833328 182.66438007 C38.76008266 182.66485483 37.34183203 182.66533072 35.92358141 182.66580774 C35.22024402 182.66604411 34.51690664 182.66628049 33.792256 182.66652403 C30.22869149 182.66772525 26.665127 182.66894069 23.1015625 182.67016602 C22.39435739 182.67040617 21.68715228 182.67064632 20.95851671 182.67089374 C-1.97606094 182.67878848 -24.9105869 182.70222331 -47.84514197 182.73472196 C-72.0826595 182.76900434 -96.32014677 182.78872973 -120.55768895 182.79202431 C-133.77395306 182.79419277 -146.9901412 182.8029904 -160.20638275 182.82848549 C-171.4592802 182.85014253 -182.71208324 182.85826757 -193.96499917 182.84851871 C-199.70948605 182.84395954 -205.45377796 182.84595389 -211.19823837 182.86528015 C-216.45378544 182.88280934 -221.70899381 182.88199783 -226.96454397 182.86638286 C-228.86902387 182.86399114 -230.77352661 182.8684106 -232.67797145 182.88021151 C-235.26145177 182.89523248 -237.8437167 182.88572648 -240.42716599 182.86998463 C-241.17129195 182.88020683 -241.91541791 182.89042904 -242.68209314 182.90096101 C-247.77369492 182.83297555 -250.63913891 181.57306254 -254.5625 178.375 C-257.70198771 174.47185311 -259.36125178 171.40620562 -259.5625 166.375 C-258.88496245 161.09020714 -257.4593702 157.1636238 -253.5625 153.375 C-248.02578671 150.07687151 -243.60089596 150.05283595 -237.29296875 150.07421875 C-232.96030192 149.26212727 -230.64983085 147.70222082 -227.11401367 145.17407227 C-224.3035991 143.19244897 -221.41625951 141.41040328 -218.47265625 139.6328125 C-216.82172974 138.63471558 -216.82172974 138.63471558 -215.13745117 137.61645508 C-214.27970596 137.09965683 -214.27970596 137.09965683 -213.40463257 136.57241821 C-210.30605251 134.70519363 -207.21173325 132.83093176 -204.1171875 130.95703125 C-203.48534042 130.57457748 -202.85349335 130.19212372 -202.20249939 129.79808044 C-195.86563431 125.9592236 -189.55587833 122.07705378 -183.25 118.1875 C-174.26331284 112.64610388 -165.25730898 107.13808179 -156.23388672 101.65673828 C-149.09789949 97.31836155 -141.98360619 92.94557089 -134.875 88.5625 C-125.20740044 82.60254615 -115.51146316 76.69146167 -105.79840088 70.80609131 C-96.18666355 64.98100774 -86.60602978 59.10697114 -77.03955078 53.20776367 C-68.7520527 48.09958173 -60.44277433 43.02806288 -52.11987305 37.9777832 C-50.80369995 37.17860474 -50.80369995 37.17860474 -49.4609375 36.36328125 C-48.63303711 35.86135254 -47.80513672 35.35942383 -46.95214844 34.84228516 C-43.98695508 33.02160554 -41.05954757 31.14445421 -38.14306641 29.24682617 C-36.5625 28.375 -36.5625 28.375 -34.5625 28.375 C-34.64951172 27.14136719 -34.64951172 27.14136719 -34.73828125 25.8828125 C-35.06028255 17.91558032 -34.45802861 11.86333217 -29.5625 5.375 C-21.69372075 -2.12636544 -10.2419443 -4.72856049 0 0 Z M-27.9296875 41.70703125 C-29.11758321 42.50686511 -30.28574867 43.33644226 -31.4375 44.1875 C-32.84447564 45.14339586 -34.25347863 46.09631177 -35.6640625 47.046875 C-36.43911133 47.57990234 -37.21416016 48.11292969 -38.01269531 48.66210938 C-42.84753037 51.91002232 -47.84210198 54.90300772 -52.8125 57.9375 C-54.49532344 58.97211115 -56.17814385 60.00672732 -57.86068726 61.04179382 C-65.99650834 66.04360994 -74.16185687 70.99656927 -82.32971191 75.9458313 C-91.8332361 81.70510074 -101.30458907 87.51483292 -110.76245117 93.34887695 C-118.77864746 98.28898487 -126.82150365 103.18358208 -134.875 108.0625 C-143.78598132 113.46096447 -152.67183125 118.89680393 -161.5168457 124.40283203 C-166.62546863 127.57643815 -171.75683021 130.70962672 -176.90625 133.81640625 C-177.8567926 134.39054764 -177.8567926 134.39054764 -178.82653809 134.97628784 C-181.96045387 136.86891137 -185.09649983 138.7578266 -188.23632812 140.640625 C-189.38680819 141.33448713 -190.53720282 142.02849096 -191.6875 142.72265625 C-193.20730469 143.63543335 -193.20730469 143.63543335 -194.7578125 144.56665039 C-198.02510859 146.6058491 -198.02510859 146.6058491 -202.5625 150.375 C-76.5025 150.375 49.5575 150.375 179.4375 150.375 C176.10883972 147.71207178 173.11474651 145.44302823 169.54296875 143.23046875 C168.60018066 142.64402588 167.65739258 142.05758301 166.68603516 141.45336914 C165.67589355 140.82938232 164.66575195 140.20539551 163.625 139.5625 C161.44914661 138.21105365 159.27336738 136.85948788 157.09765625 135.5078125 C155.98793457 134.81977539 154.87821289 134.13173828 153.73486328 133.42285156 C149.64833243 130.88488171 145.57204024 128.33079815 141.49609375 125.77587891 C130.96411382 119.17586152 120.38985266 112.64714946 109.79736328 106.14477539 C102.72585856 101.79842594 95.69377467 97.39552852 88.68701172 92.94580078 C82.07793705 88.75813619 75.41790241 84.65570172 68.75 80.5625 C57.29554314 73.53039697 45.88691322 66.42796771 34.49755859 59.29101562 C31.23570395 57.24864805 27.97169751 55.20974346 24.70703125 53.171875 C23.60568848 52.48424072 22.5043457 51.79660645 21.36962891 51.08813477 C19.25097386 49.76544997 17.13216558 48.44301058 15.01318359 47.12084961 C14.0639502 46.52796143 13.1147168 45.93507324 12.13671875 45.32421875 C10.88121216 44.54050903 10.88121216 44.54050903 9.6003418 43.7409668 C7.86336379 42.64395902 6.14685588 41.51457059 4.4375 40.375 C1.64769779 40.67660024 -0.64059093 41.40587316 -3.25 42.4375 C-9.31307545 44.15346475 -14.7115006 44.25872146 -20.453125 41.6171875 C-23.87827686 40.28117797 -24.27680816 40.26198269 -27.9296875 41.70703125 Z " fill="#60B8FD" transform="translate(267.5625,1.625)"/>
<path d="M0 0 C14.94633165 3.66858709 26.73590527 5.00167778 41.27734375 -0.875 C45.34436227 -2.38246632 48.03661516 -2.63346442 52.3125 -2 C54.48828125 -0.76171875 54.48828125 -0.76171875 56.3125 1 C57.59696161 5.98725437 56.82123167 10.83122769 54.25 15.25 C49.32929455 22.07593681 43.2344668 25.81511697 35.765625 29.5078125 C33.09644711 31.13142071 31.94823526 32.3601212 30.3125 35 C29.86159343 37.37391639 29.86159343 37.37391639 29.90625 39.921875 C29.87337891 41.33726562 29.87337891 41.33726562 29.83984375 42.78125 C29.83082031 43.7609375 29.82179688 44.740625 29.8125 45.75 C29.67108257 60.86146223 29.67108257 60.86146223 24.6640625 67.03125 C24.09429687 67.5159375 23.52453125 68.000625 22.9375 68.5 C14.77766467 76.1606049 12.87039765 84.51846828 10.640625 95.2265625 C8.7164251 103.84270207 6.38301357 107.82099745 -0.8125 113.0625 C-4.05067269 115.43472067 -6.2028604 117.15740339 -7.6875 121 C-8.0617627 123.63217723 -8.31170019 126.23712688 -8.4765625 128.890625 C-8.6875 131 -8.6875 131 -9.6875 132 C-13.88218347 132.71616547 -16.29407799 131.92030953 -19.6875 129.5625 C-26.72577777 123.85651572 -32.19011089 115.09347206 -33.3125 106.02734375 C-33.51691293 103.97731797 -33.68844874 101.9261043 -33.859375 99.87304688 C-34.31643714 95.2980307 -35.49190299 92.01531736 -37.6875 88 C-37.6875 87.34 -37.6875 86.68 -37.6875 86 C-41.83153622 84.61865459 -45.72256538 84.81575821 -50.0625 84.8125 C-50.91328125 84.80025391 -51.7640625 84.78800781 -52.640625 84.77539062 C-58.91909047 84.73218549 -58.91909047 84.73218549 -64.6875 87 C-67.24590792 89.7089025 -68.18456455 92.16984766 -69.0625 95.75 C-70.27674921 100.15895835 -71.99879347 103.44102151 -74.69921875 107.11328125 C-76.00947254 109.61467485 -76.08546245 111.21426285 -75.6875 114 C-69.22159025 121.87395887 -57.16279371 124.13600779 -47.6875 126 C-46.88417955 129.65145661 -46.46362608 132.26441428 -47.5625 135.875 C-50.70285953 140.49317578 -54.64820701 144.16693852 -58.6875 148 C-65.38780813 154.40899038 -67.10824765 159.03134676 -68.125 168.0625 C-69.94753271 182.17473234 -73.18465587 196.70321265 -85.03515625 205.8828125 C-89.5131046 208.91045606 -93.2979999 209.57744644 -98.6875 209 C-103.3027484 206.37769977 -105.15196223 202.92935271 -106.6875 198 C-107.69462063 192.68817648 -108.31727696 187.31982572 -108.97265625 181.95507812 C-110.62352785 169.88396145 -114.25439346 159.13605439 -123.6875 151 C-128.17270039 147.71895439 -132.93413982 144.87046522 -137.6875 142 C-139.42488964 140.92990387 -141.15548071 139.84858177 -142.875 138.75 C-143.54917969 138.33234375 -144.22335938 137.9146875 -144.91796875 137.484375 C-147.90321893 134.98019163 -149.47457865 132.69856115 -149.96850586 128.75830078 C-150.09226919 126.06123797 -150.09640954 123.38707633 -150.0625 120.6875 C-150.07410156 119.77548828 -150.08570313 118.86347656 -150.09765625 117.92382812 C-150.06609285 110.58533795 -149.19757876 104.62417325 -143.9375 99.125 C-134.77204318 93.13220131 -124.78296756 94.45138837 -114.5625 96.5 C-104.31484907 98.98481931 -104.31484907 98.98481931 -94.6875 96.0625 C-92.09243728 92.08881021 -90.85201795 88.75971594 -91.6875 84 C-93.58886533 81.36826894 -96.01236239 79.79338834 -98.6875 78 C-100.02184294 76.93876819 -101.3551799 75.87627026 -102.6875 74.8125 C-106.95123195 71.68195876 -111.1536011 69.56679317 -116.359375 68.40234375 C-122.32351153 67.05638321 -125.5990477 65.90439003 -129.2109375 60.8984375 C-131.42645982 58.0499088 -134.21824492 55.98551349 -137.05078125 53.7734375 C-139.11533225 51.53642997 -139.46830653 50.01152769 -139.6875 47 C-132.61454233 32.85408467 -112.95722965 23.95636814 -98.6875 19 C-95.16183161 17.89407216 -91.91014109 17.90432634 -88.2265625 17.9296875 C-68.3767062 18.20604127 -68.3767062 18.20604127 -50.6875 10 C-49.94757813 9.46503906 -49.20765625 8.93007812 -48.4453125 8.37890625 C-47.1518645 7.41007847 -45.87182842 6.42294622 -44.609375 5.4140625 C-30.67639094 -4.83744203 -16.06392916 -4.27173124 0 0 Z " fill="#43CB8E" transform="translate(375.6875,222)"/>
<path d="M0 0 C13.6417601 7.00926626 24.07515292 11.82013027 39.35351562 6.92211914 C41.0067283 6.36363163 42.65545227 5.7916357 44.29882812 5.20483398 C49.04921051 3.54012359 52.94725587 2.60529031 58.0625 3.0703125 C62.93476229 5.78971471 65.13509994 9.99671529 67.0625 15.0703125 C69.6232219 25.58634379 68.25691599 34.61592573 63.0625 44.0703125 C59.68440409 49.22532591 55.1770394 52.72476661 50.2109375 56.296875 C44.76646484 60.79103971 42.6652435 66.14372674 40.43945312 72.63085938 C38.77624847 77.1400927 37.39482632 79.86486659 33.0625 82.0703125 C28.27058242 82.53721729 23.49492881 82.15962428 18.69726562 81.9140625 C10.67550779 81.66321926 5.54387315 82.83246943 -0.39453125 88.35546875 C-3.48549758 93.79400444 -2.91932453 100.07393447 -1.9375 106.0703125 C1.00651948 110.9123388 5.72025574 112.74543592 11.0625 114.0703125 C15.52922659 114.18313188 19.99388156 113.92401872 24.45117188 113.640625 C31.31071886 113.42550022 31.31071886 113.42550022 35 116.58984375 C37.36370743 120.14614187 38.94602469 124.04715578 40.5 128.0078125 C44.15787912 136.7995045 47.89801074 141.92313449 56.0625 147.0703125 C59.59698373 150.22268988 60.86730838 152.21475672 61.37109375 157.00390625 C61.74772785 167.24150592 59.58970562 174.36622324 53.19921875 182.41796875 C49.35516858 186.53934519 45.28948199 189.39237617 40.23828125 191.8671875 C29.76885238 197.65638695 26.68038068 209.29636997 23.33032227 220.10620117 C21.51490265 225.67928444 19.02538237 229.8975321 14.1875 233.4453125 C10.93797979 234.40105374 8.42669316 234.49083664 5.0625 234.0703125 C1.41200942 230.51588746 0.12240315 227.65422216 -0.0703125 222.55859375 C-0.07296632 221.16666676 -0.07016892 219.77472089 -0.0625 218.3828125 C-0.06830078 217.35897461 -0.06830078 217.35897461 -0.07421875 216.31445312 C-0.06648956 212.22184955 0.26862722 208.30460405 0.82226562 204.24243164 C1.30441109 199.88303307 1.33001122 195.51471926 1.375 191.1328125 C1.40400391 190.19501953 1.43300781 189.25722656 1.46289062 188.29101562 C1.52139016 181.81556689 0.64105288 176.57109226 -2.9375 171.0703125 C-5.46491676 168.62680181 -5.46491676 168.62680181 -8.375 166.9453125 C-14.04630607 163.15182206 -17.72738784 159.70064897 -19.9375 153.0703125 C-20.76064301 144.79184569 -19.83540796 139.00682207 -16.06640625 131.640625 C-14.34367419 127.71828003 -14.0587652 124.25275219 -14.9375 120.0703125 C-17.37431937 115.30262243 -20.96698772 113.97451789 -25.69140625 112.02734375 C-31.48060346 109.56064233 -34.85931759 106.54263678 -37.9375 101.0703125 C-38.977755 97.68224794 -39.04956915 94.46512936 -39.12719727 90.92822266 C-39.3306409 82.97332939 -40.38280975 77.13220685 -43.84765625 69.87109375 C-46.71475491 62.50295849 -45.29517642 55.25648769 -42.62890625 48.08203125 C-41.22261564 43.99028174 -41.08768392 40.81352496 -43.00390625 36.8828125 C-46.05793607 31.95642107 -49.65284837 28.3060866 -54.10546875 24.63671875 C-57.5789568 21.66684943 -60.63145665 18.3714486 -61.24609375 13.75 C-61.53479275 7.46860974 -60.96101713 3.53634162 -56.77734375 -1.27734375 C-40.43839041 -15.95118083 -16.93882343 -8.7214357 0 0 Z " fill="#01BA67" transform="translate(142.9375,220.9296875)"/>
<path d="M0 0 C0.79806193 -0.00465992 1.59612385 -0.00931984 2.41836947 -0.01412097 C5.09728236 -0.02608857 7.77568973 -0.01666877 10.45460701 -0.00736332 C12.39274312 -0.01153546 14.33087678 -0.01701232 16.26900589 -0.02368313 C21.59879309 -0.03817216 26.9284261 -0.0338822 32.25822186 -0.02651632 C38.00475926 -0.02179549 43.75126277 -0.0342849 49.49778938 -0.04453373 C60.75735929 -0.06174853 72.01687347 -0.06255616 83.27645312 -0.05732083 C92.42670579 -0.05328279 101.57694196 -0.05471833 110.72719383 -0.06006908 C112.02849089 -0.06081751 113.32978795 -0.06156593 114.67051826 -0.06233703 C117.31393321 -0.06386848 119.95734815 -0.06540682 122.6007631 -0.066952 C140.35496311 -0.07678406 158.10915603 -0.08094105 175.86335754 -0.07332611 C176.90487726 -0.07288035 176.90487726 -0.07288035 177.96743778 -0.07242559 C183.60610793 -0.06997662 189.244778 -0.06736505 194.88344807 -0.06474145 C216.87709621 -0.0546395 238.870668 -0.06299292 260.8643055 -0.086236 C285.57278825 -0.11230588 310.28122329 -0.12510769 334.98972046 -0.11804825 C348.07295866 -0.11455191 361.15613415 -0.11681543 374.23936272 -0.13429928 C385.37719994 -0.1489985 396.51493031 -0.14968655 407.65276538 -0.13222837 C413.33676301 -0.12369714 419.02056959 -0.12162064 424.70455742 -0.13687992 C429.90701774 -0.15067372 435.10912237 -0.14603224 440.31156184 -0.12664068 C442.19441845 -0.12286403 444.07730319 -0.12585033 445.96013485 -0.13625234 C448.51922184 -0.14938596 451.07707463 -0.13787186 453.6361084 -0.12025452 C454.36741956 -0.12990503 455.09873073 -0.13955554 455.85220283 -0.14949849 C461.23473963 -0.0733959 465.4522211 1.3821179 469.94389534 4.38031673 C473.51902233 8.50546326 474.8514328 11.92502705 474.94389534 17.38031673 C474.06861149 22.27012361 472.73278031 26.11419124 468.88139534 29.38031673 C464.4502017 32.39729964 461.54660869 32.52484491 456.31192589 32.51453781 C455.11072703 32.51806616 455.11072703 32.51806616 453.88526154 32.52166578 C451.17312369 32.52837943 448.46103349 32.52789685 445.74888802 32.52748775 C443.79628194 32.53078491 441.84367655 32.53451016 439.89107203 32.53862923 C434.50282741 32.54867423 429.11459392 32.55237003 423.72634125 32.55501854 C417.92388495 32.55891419 412.12143754 32.568493 406.31898689 32.57723141 C392.29519968 32.59701644 378.27141171 32.60706445 364.24761403 32.6159592 C357.64957578 32.62033862 351.05153835 32.62570631 344.45350075 32.63094807 C322.53057838 32.64796212 300.60765658 32.66248243 278.68472862 32.66969681 C277.266478 32.67017157 275.84822737 32.67064746 274.42997675 32.67112447 C273.72663936 32.67136085 273.02330198 32.67159722 272.29865134 32.67184076 C268.73508683 32.67304198 265.17152234 32.67425742 261.60795784 32.67548275 C260.90075273 32.6757229 260.19354762 32.67596305 259.46491205 32.67621048 C236.5303344 32.68410521 213.59580844 32.70754004 190.66125337 32.74003869 C166.42373584 32.77432107 142.18624857 32.79404646 117.94870639 32.79734105 C104.73244228 32.7995095 91.51625414 32.80830713 78.30001259 32.83380222 C67.04711514 32.85545926 55.7943121 32.86358431 44.54139617 32.85383544 C38.79690929 32.84927627 33.05261738 32.85127063 27.30815697 32.87059689 C22.0526099 32.88812607 16.79740153 32.88731456 11.54185137 32.87169959 C9.63737147 32.86930788 7.73286873 32.87372734 5.82842389 32.88552824 C3.24494357 32.90054921 0.66267864 32.89104322 -1.92077065 32.87530136 C-2.66489661 32.88552357 -3.40902257 32.89574578 -4.1756978 32.90627775 C-9.26729958 32.83829228 -12.13274357 31.57837928 -16.05610466 28.38031673 C-19.19559237 24.47716985 -20.85485644 21.41152235 -21.05610466 16.38031673 C-20.5687153 11.96770237 -19.60341152 9.06445031 -16.80610466 5.56781673 C-11.37010392 1.24372524 -6.86633742 -0.06285787 0 0 Z " fill="#60B8FE" transform="translate(29.05610466003418,479.61968326568604)"/>
<path d="M0 0 C14.85 0 29.7 0 45 0 C45 97.68 45 195.36 45 296 C30.15 296 15.3 296 0 296 C0 198.32 0 100.64 0 0 Z " fill="#B1DBFB" transform="translate(24,184)"/>
<path d="M0 0 C5.89468119 3.5897097 9.4082094 8.85990914 11.4375 15.375 C11.66641677 19.05757418 11.61735738 22.69125447 11.4375 26.375 C12.51004028 26.77199097 12.51004028 26.77199097 13.60424805 27.17700195 C16.52687142 28.41278936 19.07358493 29.8715727 21.76953125 31.54296875 C22.80287598 32.18113525 23.8362207 32.81930176 24.90087891 33.47680664 C26.55869385 34.50922485 26.55869385 34.50922485 28.25 35.5625 C29.41567329 36.28471375 30.58152907 37.00663303 31.74755859 37.72827148 C35.31456059 39.93793902 38.87652075 42.15564354 42.4375 44.375 C43.48631348 45.02823242 44.53512695 45.68146484 45.61572266 46.35449219 C53.55071339 51.2999499 61.47392022 56.26416237 69.39648438 61.22949219 C80.71659794 68.32228582 92.05438161 75.38367349 103.4375 82.375 C116.80444603 90.58476123 130.10456012 98.89900897 143.39648438 107.22949219 C146.36797153 109.09132379 149.34004252 110.95221795 152.3125 112.8125 C153.78565674 113.73470337 153.78565674 113.73470337 155.28857422 114.67553711 C161.62697281 118.63690729 167.98831595 122.55907886 174.36230469 126.46289062 C183.65487129 132.15578165 192.9127098 137.89214499 202.0625 143.8125 C202.91618164 144.36244629 203.76986328 144.91239258 204.64941406 145.47900391 C205.41737305 145.97964355 206.18533203 146.4802832 206.9765625 146.99609375 C207.64896973 147.4336499 208.32137695 147.87120605 209.01416016 148.32202148 C209.4838623 148.66950439 209.95356445 149.0169873 210.4375 149.375 C210.4375 149.705 210.4375 150.035 210.4375 150.375 C190.84819679 151.98348909 177.14570506 151.65249727 161.02148438 139.29101562 C156.46033413 135.90893823 151.58940654 133.02509798 146.75 130.0625 C144.73072623 128.80114991 142.7125085 127.53810777 140.6953125 126.2734375 C134.19119957 122.21324449 127.6595325 118.19848947 121.125 114.1875 C112.94527091 109.16633365 104.79946755 104.09872015 96.69799805 98.95239258 C89.9830786 94.69682043 83.21333773 90.53272281 76.4375 86.375 C68.15732091 81.29419807 59.90955451 76.16980434 51.71020508 70.9597168 C43.77429685 65.92948577 35.76367825 61.02070267 27.74536133 56.12329102 C23.06341031 53.25676903 18.39704044 50.38820556 13.84375 47.3203125 C13.19833252 46.8874292 12.55291504 46.4545459 11.88793945 46.00854492 C10.2741506 44.91368942 8.67346455 43.79958474 7.07421875 42.68359375 C4.5239323 41.13541598 4.5239323 41.13541598 1.75 41.59375 C0.06707546 42.16230559 -1.59804566 42.78440177 -3.25 43.4375 C-9.31307545 45.15346475 -14.7115006 45.25872146 -20.453125 42.6171875 C-23.87827686 41.28117797 -24.27680816 41.26198269 -27.9296875 42.70703125 C-29.11758321 43.50686511 -30.28574867 44.33644226 -31.4375 45.1875 C-32.84447564 46.14339586 -34.25347863 47.09631177 -35.6640625 48.046875 C-36.43911133 48.57990234 -37.21416016 49.11292969 -38.01269531 49.66210938 C-42.84753037 52.91002232 -47.84210198 55.90300772 -52.8125 58.9375 C-54.49532344 59.97211115 -56.17814385 61.00672732 -57.86068726 62.04179382 C-65.99650834 67.04360994 -74.16185687 71.99656927 -82.32971191 76.9458313 C-91.8332361 82.70510074 -101.30458907 88.51483292 -110.76245117 94.34887695 C-118.77864746 99.28898487 -126.82150365 104.18358208 -134.875 109.0625 C-143.78567563 114.46077928 -152.66861101 119.9005235 -161.5168457 125.40063477 C-169.16916427 130.14924803 -176.86268283 134.82896919 -184.5625 139.5 C-185.17617432 139.87229736 -185.78984863 140.24459473 -186.42211914 140.62817383 C-190.13411057 142.87954583 -193.84683795 145.12968959 -197.5625 147.375 C-198.35873779 147.93727295 -199.15497559 148.4995459 -199.9753418 149.07885742 C-203.40142053 150.7952915 -206.01181448 150.71513192 -209.83203125 150.66796875 C-210.51303391 150.66372391 -211.19403656 150.65947906 -211.89567566 150.65510559 C-214.05586459 150.6384061 -216.21509642 150.60077312 -218.375 150.5625 C-219.84568958 150.54744174 -221.31639389 150.53375534 -222.78710938 150.52148438 C-226.37921357 150.48853214 -229.97076326 150.43681173 -233.5625 150.375 C-230.6055216 147.18299212 -227.58310409 144.98967556 -223.85546875 142.7578125 C-223.30220917 142.42423737 -222.74894958 142.09066223 -222.17892456 141.74697876 C-220.37242046 140.65933153 -218.56123059 139.57975437 -216.75 138.5 C-215.4839173 137.73923269 -214.21821521 136.97783165 -212.95288086 136.21582031 C-210.38444802 134.66973179 -207.81446561 133.12627352 -205.24316406 131.58496094 C-200.02352463 128.45399078 -194.82321382 125.29138124 -189.625 122.125 C-188.68833496 121.55515381 -187.75166992 120.98530762 -186.78662109 120.39819336 C-179.77323653 116.12649346 -172.7914296 111.80528645 -165.81542969 107.47290039 C-157.93508204 102.58758268 -150.00897782 97.77857469 -142.07901001 92.97445679 C-133.55259991 87.80820118 -125.04758459 82.60899015 -116.5625 77.375 C-107.58482603 71.83761822 -98.58366854 66.34106662 -89.5625 60.875 C-78.19032002 53.98399788 -66.8536456 47.03746634 -55.53515625 40.05859375 C-54.57109863 39.46546387 -53.60704102 38.87233398 -52.61376953 38.26123047 C-50.40094093 36.8933065 -48.19429766 35.51748049 -45.99169922 34.13330078 C-45.39812119 33.76245865 -44.80454315 33.39161652 -44.19297791 33.00953674 C-42.51934857 31.96374158 -40.84834636 30.9137456 -39.17749023 29.86352539 C-36.5625 28.375 -36.5625 28.375 -34.5625 28.375 C-34.64951172 27.14136719 -34.64951172 27.14136719 -34.73828125 25.8828125 C-35.06028255 17.91558032 -34.45802861 11.86333217 -29.5625 5.375 C-21.69372075 -2.12636544 -10.2419443 -4.72856049 0 0 Z " fill="#DFEBFA" transform="translate(267.5625,1.625)"/>
<path d="M0 0 C8.21466495 3.34155862 16.10560946 6.95431223 23.84790039 11.28320312 C32.10723519 15.84915494 39.96704909 17.8323397 49.29394531 15.40234375 C52.63732224 14.38992204 55.94689906 13.30890039 59.23706055 12.13476562 C63.986946 10.46921495 67.88505559 9.53500505 73 10 C77.87226229 12.71940221 80.07259994 16.92640279 82 22 C84.5607219 32.51603129 83.19441599 41.54561323 78 51 C74.62190409 56.15501341 70.1145394 59.65445411 65.1484375 63.2265625 C59.70396484 67.72072721 57.6027435 73.07341424 55.37695312 79.56054688 C53.71374847 84.0697802 52.33232632 86.79455409 48 89 C43.20808242 89.46690479 38.43242881 89.08931178 33.63476562 88.84375 C25.73301673 88.59665948 20.68647492 89.97520006 14.5625 95 C12.09311206 99.74122484 12.16830444 104.72365579 12 110 C11.67 110 11.34 110 11 110 C11.00112793 109.37657715 11.00225586 108.7531543 11.00341797 108.11083984 C10.9531419 96.24787439 10.65576616 86.53478489 5.3125 75.796875 C2.61580004 70.0503358 3.78454979 65.56692173 5.5 59.625 C7.73666615 51.88329912 7.73666615 51.88329912 7 44 C3.78190292 39.26509283 -0.12890608 35.46457649 -4.625 31.9453125 C-8.50956514 28.76354697 -11.29274403 24.91955265 -12.48828125 19.984375 C-12.87817152 14.32539618 -10.49751365 10.29585916 -7 6 C-2.7 2 -2.7 2 0 2 C0 1.34 0 0.68 0 0 Z " fill="#43CB8E" transform="translate(128,214)"/>
<path d="M0 0 C4.20809249 2.10404624 4.20809249 2.10404624 6 5 C6.63387607 7.15242267 7.2121817 9.32158918 7.75 11.5 C8.95947279 16.3269852 8.95947279 16.3269852 12.328125 19.74609375 C14.08413469 20.52910976 15.8594606 21.27039858 17.65234375 21.96484375 C21.12285581 23.49510281 22.39337008 25.64703321 24 29 C25.21772719 33.56230666 25.25438675 38.12082351 25.3125 42.8125 C25.35600586 43.96588867 25.35600586 43.96588867 25.40039062 45.14257812 C25.47011634 51.49834564 23.90694856 56.68525352 19.65820312 61.5300293 C14.63321376 66.12542545 8.33625186 67.63821001 1.66796875 67.5234375 C-5.16261993 66.18332201 -11.82641956 62.08686956 -17.578125 58.3046875 C-22.17908042 55.82610829 -26.93973153 56.23383259 -32 57 C-35.44986396 58.37120169 -38.70126921 59.97545974 -42.015625 61.64453125 C-46.19240891 63.54157839 -48.50113707 63.88370522 -53 63 C-55.8125 60.8125 -55.8125 60.8125 -58 58 C-58.61875 57.21625 -59.2375 56.4325 -59.875 55.625 C-61.80241813 51.12769103 -60.410872 47.08723053 -58.73046875 42.640625 C-58.22128906 41.52171875 -57.71210938 40.4028125 -57.1875 39.25 C-54.83233871 34.02363135 -52.82786676 28.78973298 -51.15234375 23.3046875 C-49.24356158 19.48712315 -46.75718238 17.62879844 -42.73901367 16.19091797 C-40.04639876 15.40307217 -37.34492981 14.68753781 -34.625 14 C-23.07303319 11.2637649 -23.07303319 11.2637649 -14.1875 3.8125 C-10.3531456 -1.11738423 -5.90531985 -0.7358937 0 0 Z " fill="#43CB8E" transform="translate(407,365)"/>
<path d="M0 0 C-1.875 5.75 -1.875 5.75 -3 8 C-3.2694968 11.931795 -3.23162105 15.87251216 -3.25 19.8125 C-3.270625 20.90626953 -3.29125 22.00003906 -3.3125 23.12695312 C-3.31765625 24.18462891 -3.3228125 25.24230469 -3.328125 26.33203125 C-3.3374707 27.29858643 -3.34681641 28.2651416 -3.35644531 29.26098633 C-2.83477626 33.26961995 -1.22590665 35.98351907 1.875 38.5546875 C2.57625 38.99039063 3.2775 39.42609375 4 39.875 C5.19109375 40.63490234 5.19109375 40.63490234 6.40625 41.41015625 C8.17037949 42.49148261 9.94153842 43.56140581 11.71875 44.62109375 C23.55368732 51.81846434 31.92973908 60.19624777 35.8125 73.6875 C37.73146542 82.4455689 38.98049655 91.41006496 34.4375 99.5 C30.58527656 105.02394305 25.73519146 110.31620213 19 112 C14.98513204 112.43016442 12.78459782 112.44579422 9.25 110.4375 C2.83318152 103.48594665 2.80978158 93.9179264 1.71484375 84.95507812 C0.06397215 72.88396145 -3.56689346 62.13605439 -13 54 C-17.48520039 50.71895439 -22.24663982 47.87046522 -27 45 C-28.73738964 43.92990387 -30.46798071 42.84858177 -32.1875 41.75 C-32.86167969 41.33234375 -33.53585938 40.9146875 -34.23046875 40.484375 C-37.21571893 37.98019163 -38.78707865 35.69856115 -39.28100586 31.75830078 C-39.40476919 29.06123797 -39.40890954 26.38707633 -39.375 23.6875 C-39.38660156 22.77548828 -39.39820313 21.86347656 -39.41015625 20.92382812 C-39.37859285 13.58533795 -38.51007876 7.62417325 -33.25 2.125 C-23.1057114 -4.50780409 -11.26385562 -2.20166113 0 0 Z " fill="#01BA67" transform="translate(265,319)"/>
<path d="M0 0 C3.03278067 1.51639033 3.61513595 3.98942599 5 7 C5.33 7.99 5.66 8.98 6 10 C8.00016466 11.20882096 8.00016466 11.20882096 10 12 C8.84167575 15.47497274 8.30931691 15.7005357 5.265625 17.4609375 C4.47542969 17.9252417 3.68523437 18.3895459 2.87109375 18.86791992 C1.57365234 19.61392456 1.57365234 19.61392456 0.25 20.375 C-1.59978939 21.46082505 -3.44872268 22.54810961 -5.296875 23.63671875 C-6.72483398 24.47468994 -6.72483398 24.47468994 -8.18164062 25.32958984 C-12.49411434 27.8855449 -16.74698702 30.53417963 -21 33.1875 C-29.19577582 38.28463706 -37.43245369 43.31212892 -45.6875 48.3125 C-54.81308196 53.8406877 -63.91915297 59.39845782 -73 65 C-82.08084887 70.60154332 -91.18701218 76.15915503 -100.3125 81.6875 C-109.22317563 87.08577928 -118.10611101 92.5255235 -126.9543457 98.02563477 C-134.60666427 102.77424803 -142.30018283 107.45396919 -150 112.125 C-150.61367432 112.49729736 -151.22734863 112.86959473 -151.85961914 113.25317383 C-155.57161057 115.50454583 -159.28433795 117.75468959 -163 120 C-163.79623779 120.56227295 -164.59247559 121.1245459 -165.4128418 121.70385742 C-168.83892053 123.4202915 -171.44931448 123.34013192 -175.26953125 123.29296875 C-175.95053391 123.28872391 -176.63153656 123.28447906 -177.33317566 123.28010559 C-179.49336459 123.2634061 -181.65259642 123.22577312 -183.8125 123.1875 C-185.28318958 123.17244174 -186.75389389 123.15875534 -188.22460938 123.14648438 C-191.81671357 123.11353214 -195.40826326 123.06181173 -199 123 C-196.0430216 119.80799212 -193.02060409 117.61467556 -189.29296875 115.3828125 C-188.73970917 115.04923737 -188.18644958 114.71566223 -187.61642456 114.37197876 C-185.80992046 113.28433153 -183.99873059 112.20475437 -182.1875 111.125 C-180.9214173 110.36423269 -179.65571521 109.60283165 -178.39038086 108.84082031 C-175.82194802 107.29473179 -173.25196561 105.75127352 -170.68066406 104.20996094 C-165.46102463 101.07899078 -160.26071382 97.91638124 -155.0625 94.75 C-154.12583496 94.18015381 -153.18916992 93.61030762 -152.22412109 93.02319336 C-145.21073653 88.75149346 -138.2289296 84.43028645 -131.25292969 80.09790039 C-123.37258204 75.21258268 -115.44647782 70.40357469 -107.51651001 65.59945679 C-98.99009991 60.43320118 -90.48508459 55.23399015 -82 50 C-72.43932531 44.10302647 -62.84992875 38.25573157 -53.24258423 32.43530273 C-44.53530463 27.15924758 -35.85368395 21.84326452 -27.1875 16.5 C-24.05929852 14.5753314 -20.93078713 12.65116737 -17.80224609 10.72705078 C-15.23571696 9.14527459 -12.6741788 7.55571245 -10.11328125 5.96484375 C-8.74246876 5.12193824 -7.37140089 4.27944784 -6 3.4375 C-5.40082764 3.06109375 -4.80165527 2.6846875 -4.18432617 2.296875 C-2.82561902 1.46892881 -1.41701805 0.72362965 0 0 Z " fill="#DFEBFA" transform="translate(233,29)"/>
<path d="M0 0 C0.66 0.66 1.32 1.32 2 2 C4.22053194 2.55456436 4.22053194 2.55456436 6.7890625 2.8515625 C7.73007812 2.98046875 8.67109375 3.109375 9.640625 3.2421875 C11.11789062 3.43167969 11.11789062 3.43167969 12.625 3.625 C13.61757813 3.7590625 14.61015625 3.893125 15.6328125 4.03125 C18.08763775 4.36170724 20.54324252 4.68428484 23 5 C22.37256954 6.44391859 21.74169601 7.88634138 21.109375 9.328125 C20.75842773 10.1315332 20.40748047 10.93494141 20.04589844 11.76269531 C19 14 19 14 17.25 16.75 C15.73891182 19.46995873 15.65624242 20.92501783 16 24 C22.46590975 31.87395887 34.52470629 34.13600779 44 36 C44.80332045 39.65145661 45.22387392 42.26441428 44.125 45.875 C40.98464047 50.49317578 37.03929299 54.16693852 33 58 C26.28249172 64.42544271 24.534925 69.1223236 23.5 78.1875 C22.6574713 85.41140352 21.30677718 92.09179957 19 99 C18.67 99 18.34 99 18 99 C17.97421875 98.29617188 17.9484375 97.59234375 17.921875 96.8671875 C17.06935673 82.02561944 13.36491521 69.90829724 2.5625 59.5 C-2.19597132 55.36440316 -7.34383505 52.17115128 -12.82202148 49.09375 C-17.54366916 46.42296914 -21.24123899 44.27628303 -23 39 C-23.28463152 35.08818141 -23.27765684 31.17101641 -23.3125 27.25 C-23.34150391 26.1775 -23.37050781 25.105 -23.40039062 24 C-23.4531361 17.4108735 -22.89415604 13.37654679 -19 8 C-17.67935547 8.08701172 -17.67935547 8.08701172 -16.33203125 8.17578125 C-9.0931992 8.64564101 -9.0931992 8.64564101 -2.75 5.6875 C-0.88143125 3.06541503 -0.88143125 3.06541503 0 0 Z " fill="#43CB8E" transform="translate(284,312)"/>
<path d="M0 0 C0.84433594 0.00322266 1.68867188 0.00644531 2.55859375 0.00976562 C3.86763672 0.02233398 3.86763672 0.02233398 5.203125 0.03515625 C6.53537109 0.04192383 6.53537109 0.04192383 7.89453125 0.04882812 C10.08079829 0.06058225 12.26692679 0.07701376 14.453125 0.09765625 C14.453125 0.75765625 14.453125 1.41765625 14.453125 2.09765625 C12.16565539 3.57742908 9.88269559 4.94408745 7.515625 6.28515625 C-4.51049532 13.02543862 -4.51049532 13.02543862 -13.546875 23.09765625 C-13.89639434 26.59284969 -13.65800637 28.76426213 -12.546875 32.09765625 C-11.21634271 32.76989583 -9.88264137 33.43587803 -8.546875 34.09765625 C-7.43660883 35.37000507 -6.37618089 36.68694696 -5.359375 38.03515625 C-1.577825 42.50206179 1.87729138 43.76246506 7.453125 45.09765625 C15.32822142 47.06297029 20.3673378 50.79084981 26.453125 56.09765625 C27.24847656 56.74863281 28.04382813 57.39960938 28.86328125 58.0703125 C33.04506088 61.54406595 33.04506088 61.54406595 34.453125 63.09765625 C34.453125 64.08765625 34.453125 65.07765625 34.453125 66.09765625 C33.83824219 66.2678125 33.22335937 66.43796875 32.58984375 66.61328125 C27.5908148 68.04561319 27.5908148 68.04561319 23.453125 71.03515625 C22.47138764 73.05998956 21.84829264 74.88471748 21.453125 77.09765625 C14.32513447 77.37718529 7.44521579 76.50428832 0.453125 75.09765625 C-0.546875 74.09765625 -0.546875 74.09765625 -0.671875 70.41015625 C-1.08305521 66.86135477 -1.89419457 65.29379689 -4.609375 62.97265625 C-5.9091628 61.99715089 -7.22238342 61.0393468 -8.546875 60.09765625 C-9.20558594 59.57042969 -9.86429687 59.04320312 -10.54296875 58.5 C-15.39756538 54.64849741 -20.08118779 51.87287576 -26.21875 50.5 C-32.18288653 49.15403946 -35.4584227 48.00204628 -39.0703125 42.99609375 C-41.28583482 40.14756505 -44.07761992 38.08316974 -46.91015625 35.87109375 C-48.97470725 33.63408622 -49.32768153 32.10918394 -49.546875 29.09765625 C-42.47391733 14.95174092 -22.81660465 6.05402439 -8.546875 1.09765625 C-5.62231536 0.24174354 -3.04419605 -0.02056889 0 0 Z " fill="#02BA67" transform="translate(285.546875,239.90234375)"/>
<path d="M0 0 C3.87020833 0.51115959 4.7564574 1.63275498 7.10131836 4.62133789 C9.13836102 7.67587536 10.41405066 10.97003168 11.75 14.375 C15.40787912 23.166692 19.14801074 28.29032199 27.3125 33.4375 C30.84698373 36.58987738 32.11730838 38.58194422 32.62109375 43.37109375 C32.99772785 53.60869342 30.83970562 60.73341074 24.44921875 68.78515625 C20.03311455 73.51985715 15.11237993 76.6338236 9.3125 79.4375 C8.3225 79.9325 8.3225 79.9325 7.3125 80.4375 C7.35890625 79.60347656 7.4053125 78.76945312 7.453125 77.91015625 C7.68497414 70.6814313 7.81073727 64.38749111 3.3125 58.4375 C0.64571148 56.02033287 -2.12385373 53.82816446 -4.984375 51.64453125 C-9.87946396 47.64781844 -14.00276992 42.84924189 -14.99609375 36.44921875 C-15.39147015 29.32046237 -13.09022911 24.09117587 -10 17.83203125 C-8.02507708 12.7242693 -8.00197103 9.00850388 -10.1875 4 C-10.6825 3.154375 -11.1775 2.30875 -11.6875 1.4375 C-7.79761199 0.89155081 -3.90048246 0.46276911 0 0 Z " fill="#43CB8E" transform="translate(171.6875,334.5625)"/>
<path d="M0 0 C3.12578143 1.6720747 5.39281175 3.7856235 7 7 C7.039992 8.99960012 7.04346799 11.00047242 7 13 C5.83082031 13.31453125 4.66164063 13.6290625 3.45703125 13.953125 C1.90867848 14.38478698 0.36051097 14.81711386 -1.1875 15.25 C-1.95642578 15.45496094 -2.72535156 15.65992188 -3.51757812 15.87109375 C-8.1108581 17.17219451 -11.6893303 18.38726189 -15 22 C-16.31312179 24.62551182 -17.19587941 27.32484307 -18.0625 30.125 C-18.56451275 31.65557026 -19.06841285 33.18552281 -19.57421875 34.71484375 C-19.81446777 35.45202637 -20.0547168 36.18920898 -20.30224609 36.94873047 C-21.19923179 39.58570523 -22.27060609 42.13139395 -23.375 44.6875 C-24.84844893 48.24934967 -25.41095685 51.09590993 -25 55 C-25.68964844 55.24234375 -26.37929688 55.4846875 -27.08984375 55.734375 C-31.7363529 57.39156619 -36.25446393 59.07998234 -40.6875 61.25 C-45.11299393 63.23711803 -48.16639071 63.72504139 -53 63 C-55.8125 60.8125 -55.8125 60.8125 -58 58 C-58.61875 57.21625 -59.2375 56.4325 -59.875 55.625 C-61.80241813 51.12769103 -60.410872 47.08723053 -58.73046875 42.640625 C-58.22128906 41.52171875 -57.71210938 40.4028125 -57.1875 39.25 C-54.83233871 34.02363135 -52.82786676 28.78973298 -51.15234375 23.3046875 C-49.24356158 19.48712315 -46.75718238 17.62879844 -42.73901367 16.19091797 C-40.04639876 15.40307217 -37.34492981 14.68753781 -34.625 14 C-23.07303319 11.2637649 -23.07303319 11.2637649 -14.1875 3.8125 C-10.39341462 -1.06560977 -5.86421308 -0.82619847 0 0 Z " fill="#02BA67" transform="translate(407,365)"/>
<path d="M0 0 C5.90324145 3.59492268 9.37510987 8.86218908 11.4375 15.375 C12.6405017 23.21434075 10.50980833 28.73382274 6.4375 35.375 C5.86 36.32375 5.2825 37.2725 4.6875 38.25 C0.03447168 42.64452675 -5.31874048 44.59891355 -11.6875 44.8125 C-18.47758045 44.50720956 -23.58912401 42.07954485 -28.5625 37.375 C-34.00654057 29.90888722 -35.6466514 24.64164148 -34.5625 15.375 C-32.33737141 7.96480432 -28.2597379 3.1719696 -21.5625 -0.625 C-15.01470629 -2.8075979 -6.33923298 -2.926734 0 0 Z " fill="#FE4856" transform="translate(267.5625,1.625)"/>
<path d="M0 0 C1.07911652 0.00424484 2.15823303 0.00848969 3.27005005 0.01286316 C6.70372874 0.02960455 10.13681233 0.06724931 13.5703125 0.10546875 C15.90363733 0.12052141 18.2369714 0.1342088 20.5703125 0.14648438 C26.27884757 0.17949321 31.98703751 0.2296477 37.6953125 0.29296875 C35.7236838 1.60738788 33.72349235 2.88011009 31.6953125 4.10546875 C28.48350051 6.44741499 27.13608034 7.6110065 25.6953125 11.29296875 C25.01846455 16.2815888 25.11901036 20.09603354 27.3203125 24.66796875 C29.86378513 27.47917534 32.4749726 29.31685109 35.6953125 31.29296875 C35.6953125 31.62296875 35.6953125 31.95296875 35.6953125 32.29296875 C28.96936984 32.39456805 22.24362582 32.46451786 15.51708984 32.51269531 C13.22990524 32.53278392 10.94277182 32.56006003 8.65576172 32.59472656 C5.36412916 32.64336433 2.07317693 32.66596554 -1.21875 32.68359375 C-2.74721054 32.71456146 -2.74721054 32.71456146 -4.30654907 32.74615479 C-10.16413667 32.7479972 -13.71713517 32.32592154 -18.3046875 28.29296875 C-21.44417521 24.38982186 -23.10343928 21.32417437 -23.3046875 16.29296875 C-22.62714995 11.00817589 -21.2015577 7.08159255 -17.3046875 3.29296875 C-11.71415382 -0.42414737 -6.46757456 -0.09621294 0 0 Z " fill="#25A8FD" transform="translate(31.3046875,151.70703125)"/>
<path d="M0 0 C0.99033234 0.02644089 1.98066467 0.05288177 3.00100708 0.0801239 C6.14974403 0.16757069 9.29728675 0.2768312 12.4453125 0.38671875 C14.58589533 0.45001033 16.72652085 0.51187526 18.8671875 0.57226562 C24.10216988 0.72306024 29.33634364 0.89174756 34.5703125 1.07421875 C33.79300781 1.68007813 33.01570313 2.2859375 32.21484375 2.91015625 C28.52100772 5.93288175 25.92343244 8.62984402 25.21875 13.5078125 C25.05288583 18.58174829 25.44181583 21.90288986 28.5703125 26.07421875 C28.5703125 26.73421875 28.5703125 27.39421875 28.5703125 28.07421875 C29.3540625 28.36296875 30.1378125 28.65171875 30.9453125 28.94921875 C33.5703125 30.07421875 33.5703125 30.07421875 35.5703125 32.07421875 C28.84436984 32.17581805 22.11862582 32.24576786 15.39208984 32.29394531 C13.10490524 32.31403392 10.81777182 32.34131003 8.53076172 32.37597656 C5.23912916 32.42461433 1.94817693 32.44721554 -1.34375 32.46484375 C-2.87221054 32.49581146 -2.87221054 32.49581146 -4.43154907 32.52740479 C-10.28913667 32.5292472 -13.84213517 32.10717154 -18.4296875 28.07421875 C-21.56917521 24.17107186 -23.22843928 21.10542437 -23.4296875 16.07421875 C-22.94229814 11.66160438 -21.97699436 8.75835233 -19.1796875 5.26171875 C-12.75695967 0.1527307 -7.92740028 -0.31063953 0 0 Z " fill="#23A8FE" transform="translate(31.4296875,479.92578125)"/>
<path d="M0 0 C6.25695621 3.49225463 9.73058234 8.19174702 12 15 C12.99819482 22.77165968 11.26576301 28.4860646 7 35 C5.42535767 36.89382659 3.87736084 38.39083357 2 40 C-4.04430748 33.77353531 -7.3834492 28.77826868 -8.5 20.125 C-8.27406301 14.10794131 -4.9262189 8.50814451 -1.33203125 3.828125 C0.19629675 2.10758477 0.19629675 2.10758477 0 0 Z " fill="#FE646E" transform="translate(267,2)"/>
</svg>
